<?xml version="1.0" encoding="UTF-8" standalone="no"?>
<svg
   width="48"
   height="48.001"
   viewBox="0 0 48 48.001"
   version="1.1"
   id="svg201"
   sodipodi:docname="decrease.svg"
   inkscape:version="1.2.2 (732a01da63, 2022-12-09)"
   xmlns:inkscape="http://www.inkscape.org/namespaces/inkscape"
   xmlns:sodipodi="http://sodipodi.sourceforge.net/DTD/sodipodi-0.dtd"
   xmlns="http://www.w3.org/2000/svg"
   xmlns:svg="http://www.w3.org/2000/svg">
  <defs
     id="defs205" />
  <sodipodi:namedview
     id="namedview203"
     pagecolor="#ffffff"
     bordercolor="#666666"
     borderopacity="1.0"
     inkscape:showpageshadow="2"
     inkscape:pageopacity="0.0"
     inkscape:pagecheckerboard="0"
     inkscape:deskcolor="#d1d1d1"
     showgrid="false"
     inkscape:zoom="8.4789901"
     inkscape:cx="21.700698"
     inkscape:cy="14.329537"
     inkscape:window-width="1920"
     inkscape:window-height="1001"
     inkscape:window-x="-9"
     inkscape:window-y="-9"
     inkscape:window-maximized="1"
     inkscape:current-layer="svg201" />
  <text
     xml:space="preserve"
     style="font-size:29.3333px;line-height:1;font-family:sans-serif;letter-spacing:0px;word-spacing:0px;direction:rtl"
     x="28.786303"
     y="35.616982"
     id="text378"><tspan
       sodipodi:role="line"
       id="tspan376"
       x="28.786303"
       y="35.616982"
       style="font-size:29.3333px" /></text>
  <text
     xml:space="preserve"
     style="font-size:37.4344px;line-height:1;font-family:sans-serif;letter-spacing:0px;word-spacing:0px;direction:rtl;stroke-width:2.33964"
     x="23.856766"
     y="30.096907"
     id="text660"
     transform="scale(0.81068288,1.233528)"><tspan
       sodipodi:role="line"
       id="tspan658"
       x="23.856766"
       y="30.096907"
       style="font-size:37.4344px;stroke-width:2.33964">–</tspan></text>
  <path
     style="fill:#000000;stroke-width:0.344745"
     d="m 44.147216,37.571241 c 0,-1.424235 -0.353729,-1.835406 -7.08643,-8.237195 l -6.416768,-6.10138 -0.629434,0.56963 c -1.625707,1.471244 -1.196221,3.01519 1.740045,6.255247 2.30053,2.538543 2.739701,3.354805 2.739701,5.092151 0,0 -0.02696,0.778156 -0.196322,1.115634 -0.273025,0.544039 -0.769774,0.890751 -1.252821,1.328576 l -4.618992,0.112902 -4.715098,0.07018 0.0961,-0.305511 c 0.05748,-0.182697 0.319158,-0.449523 0.709241,-0.57333 0.390083,-0.12381 0.834652,-0.560884 0.987933,-0.971282 0.444276,-0.865575 0.1391,-1.714744 0.0055,-2.642283 -0.355338,-2.811785 -0.686178,-5.918958 0.383531,-7.917449 0.488771,-0.980832 1.546963,-2.120422 2.129668,-2.610735 l 1.059414,-0.891478 -1.58749,-1.616022 c -3.29457,-3.353798 -3.508109,-6.741417 -0.607749,-9.641777 1.309192,-1.3091925 1.745633,-1.3926325 1.748732,-0.334328 0.0037,1.277649 1.015645,2.458912 6.580153,7.681453 5.940061,5.575017 5.669305,5.398323 5.926366,3.867539 0.103483,-0.616232 0.289438,-1.376072 0.413232,-1.688534 l 0.225045,-0.568109 -1.347225,-0.757185 c -1.462816,-0.822149 -2.240986,-1.960765 -2.761115,-3.701818 -0.18125,-1.084213 0.01134,-1.883581 0.174202,-2.93034 0.261166,-0.999253 0.588225,-2.024696 0.747134,-2.2787616 0.557943,-0.5724627 0.459321,-0.2915452 1.12959,0.3787226 0,0 0.487962,0.659971 0.840663,0.840664 0.674907,0.345764 2.245361,0.365817 2.245361,0.365817 4.29493,0.485917 5.61651,2.187999 4.976754,6.454192 l -0.230908,1.539802 -1.679205,0.222755 -1.679204,0.222753 -0.435831,1.052195 c -0.239709,0.578706 -0.435834,1.785675 -0.435834,2.682153 v 1.629959 l 1.843542,2.016978 c 2.206794,2.539024 3.282684,4.437653 2.653287,7.193518 -0.175477,0.604346 -0.893637,1.626375 -0.893637,1.626375 -0.877052,1.382967 -1.930043,2.332855 -2.586069,2.332855 -0.107271,0 -0.195037,-0.398036 -0.195037,-0.884529 z"
     id="path560"
     sodipodi:nodetypes="sscsssacccsscccscsscssscsccccasscccsscccssss" />
</svg>
