<?xml version="1.0" encoding="UTF-8" standalone="no"?>
<svg
   id="Layer_1"
   data-name="Layer 1"
   viewBox="0 0 48 48"
   version="1.1"
   sodipodi:docname="gear.svg"
   inkscape:version="1.2.2 (732a01da63, 2022-12-09)"
   xmlns:inkscape="http://www.inkscape.org/namespaces/inkscape"
   xmlns:sodipodi="http://sodipodi.sourceforge.net/DTD/sodipodi-0.dtd"
   xmlns="http://www.w3.org/2000/svg"
   xmlns:svg="http://www.w3.org/2000/svg">
  <sodipodi:namedview
     id="namedview15"
     pagecolor="#ffffff"
     bordercolor="#666666"
     borderopacity="1.0"
     inkscape:showpageshadow="2"
     inkscape:pageopacity="0.0"
     inkscape:pagecheckerboard="0"
     inkscape:deskcolor="#d1d1d1"
     showgrid="false"
     inkscape:zoom="8.4791667"
     inkscape:cx="46.584767"
     inkscape:cy="42.987715"
     inkscape:window-width="1920"
     inkscape:window-height="1001"
     inkscape:window-x="-9"
     inkscape:window-y="-9"
     inkscape:window-maximized="1"
     inkscape:current-layer="Layer_1" />
  <defs
     id="defs4">
    <style
       id="style2">.cls-1{fill:none;stroke:#000;stroke-linecap:round;stroke-linejoin:round;stroke-width:2px;}</style>
  </defs>
  <title
     id="title6">gear</title>
  <g
     id="g347"
     transform="matrix(1.1291681,0,0,1.1291681,-3.1000344,-3.1000344)">
    <path
       class="cls-1"
       d="M 44,28 V 20 H 38.44 A 14.89,14.89 0 0 0 37,16.61 L 41,12.69 35.31,7 31.39,11 A 14.89,14.89 0 0 0 28,9.56 V 4 H 20 V 9.56 A 14.89,14.89 0 0 0 16.61,11 L 12.69,7 7,12.69 11,16.61 A 14.89,14.89 0 0 0 9.56,20 H 4 v 8 H 9.56 A 14.89,14.89 0 0 0 11,31.39 L 7,35.31 12.69,41 16.61,37 A 14.89,14.89 0 0 0 20,38.44 V 44 h 8 V 38.44 A 14.89,14.89 0 0 0 31.39,37 L 35.31,41 41,35.31 37,31.39 A 14.89,14.89 0 0 0 38.44,28 Z"
       id="path8" />
    <circle
       class="cls-1"
       cx="24"
       cy="24"
       r="10"
       id="circle10" />
  </g>
  <rect
     class="cls-1"
     x="-418"
     y="-146"
     width="680"
     height="680"
     id="rect12" />
</svg>
