<?xml version="1.0" encoding="UTF-8" standalone="no"?>
<!-- Created with Inkscape (http://www.inkscape.org/) -->

<svg
   width="170.46005mm"
   height="75.862221mm"
   viewBox="0 0 170.46005 75.862221"
   version="1.1"
   id="svg1"
   xml:space="preserve"
   xmlns="http://www.w3.org/2000/svg"
   xmlns:svg="http://www.w3.org/2000/svg"><defs
     id="defs1" /><g
     id="layer1"
     transform="translate(-18.67574,-125.40544)"><path
       style="fill:#1b202b;fill-opacity:1"
       d="m 112.91665,200.89088 c -2.16302,-0.98264 -2.6361,-3.24332 -0.99889,-4.77338 1.90699,-1.78218 4.71912,-1.5109 6.10898,0.58932 1.73956,2.62866 -1.92647,5.63035 -5.11009,4.18406 z m -32.085227,-1.17871 c -0.03336,-0.17322 0.03923,-1.65396 0.161312,-3.29054 0.280454,-3.75972 0.502047,-3.416 -2.202268,-3.416 -1.592305,0 -2.307829,-0.0642 -2.434146,-0.21838 -0.279245,-0.34085 -0.05102,-4.81063 0.261593,-5.12324 0.286143,-0.28614 13.383841,-0.37336 13.827853,-0.0921 0.194028,0.12291 0.214976,0.61714 0.111152,2.62237 l -0.127936,2.47091 -0.318046,0.17021 c -0.174925,0.0936 -1.218895,0.17021 -2.319932,0.17021 -2.371464,0 -2.218295,-0.18499 -2.028839,2.45036 0.239758,3.33506 0.212595,4.15127 -0.141457,4.25065 -0.168152,0.0472 -1.300884,0.13862 -2.517182,0.20314 l -2.211452,0.11733 z m 32.436127,-6.54248 c -1.88455,-0.55318 -2.96347,-2.94496 -1.94882,-4.32023 1.93154,-2.61806 5.93314,-2.28299 7.02982,0.58864 0.89092,2.33284 -2.17506,4.58456 -5.081,3.73159 z m 64.55479,-0.0445 c -0.86072,-0.27411 -2.04884,-1.51298 -2.19423,-2.28798 -0.58016,-3.09252 4.01885,-5.06037 6.445,-2.75772 2.74186,2.60231 -0.36033,6.28463 -4.25077,5.0457 z m -45.22442,-0.35078 c -0.28786,-0.34685 -0.0475,-4.78833 0.27663,-5.1125 0.36849,-0.36849 13.53173,-0.36675 13.83762,0.002 0.15025,0.18105 0.1728,0.89563 0.0829,2.62822 l -0.12343,2.37957 -0.31211,0.16704 c -0.52116,0.27892 -13.52725,0.21829 -13.76165,-0.0642 z m -73.897273,-2.4525 c -2.264085,-0.81973 -2.820654,-5.93595 -1.178055,-10.82917 1.246057,-3.71193 2.097006,-4.17516 6.254002,-3.40443 4.303797,0.79794 4.510714,0.28969 2.419231,-5.94234 -1.642765,-4.89497 -1.842311,-5.88998 -1.703027,-8.49192 0.142906,-2.66962 1.243374,-6.77797 2.338878,-8.73169 l 0.189624,-0.33818 -0.672762,-0.48734 c -3.05411,-2.21239 -4.677658,-8.71287 -4.007136,-16.04407 l 0.226335,-2.47465 0.422341,-0.16058 c 0.596528,-0.2268 1.806863,-0.19475 2.312705,0.0612 l 0.428129,0.21666 0.200331,1.40209 c 0.246715,1.72671 0.45445,2.13177 1.272296,2.48078 l 0.641077,0.27358 9.783402,0.025 9.783403,0.025 1.673304,0.45508 c 6.705057,1.82353 9.610873,7.2784 9.614281,18.04817 0.0023,7.12636 -2.249673,13.64658 -6.428376,18.61269 -1.353626,1.60869 -6.518883,1.31412 -7.666399,-0.43721 -0.416754,-0.63605 -0.200717,-1.00722 1.32871,-2.28288 4.678077,-3.90185 7.164859,-8.66536 7.792593,-13.44711 0.113394,-0.86378 0.09887,-1.43952 -0.239925,-2.20543 -1.363832,-3.08316 -5.146072,-4.18131 -13.181442,-3.82714 -2.240578,0.0988 -5.35042,0.17974 -6.910762,0.17996 l -2.836984,4e-4 -0.686521,1.36542 c -1.924768,3.82817 -1.857493,5.12203 0.556209,10.69726 2.781683,6.42521 2.863117,7.09744 1.607427,13.26934 -1.267286,6.22889 -3.133016,9.9862 -5.54947,11.17581 -1.883349,0.92717 -6.220117,1.38161 -7.783419,0.8156 z m 96.887633,-3.44562 c -0.93458,-0.54425 -1.19648,-2.00722 -0.56081,-3.13268 1.09733,-1.94285 1.51837,-3.6904 1.83034,-7.59691 0.63482,-7.94901 0.4364,-24.89526 -0.29149,-24.89526 -0.85961,0 -3.06785,-1.92879 -3.30921,-2.89042 -0.3656,-1.45667 2.49639,-6.12606 5.79043,-9.44721 2.29157,-2.31041 2.61534,-2.40898 6.68517,-2.03519 6.10071,0.5603 13.26669,0.36698 18.18111,-0.4905 l 1.98774,-0.34682 0.4108,0.26916 c 0.22594,0.14804 0.53169,0.50294 0.67944,0.78866 l 0.26864,0.5195 -0.25696,1.23236 c -0.77901,3.73619 -5.13877,10.13793 -8.23449,12.0913 -1.68326,1.06213 -5.85928,1.60129 -11.63173,1.50178 l -3.30902,-0.057 -0.24297,0.87352 c -0.87855,3.15862 -1.35465,11.30596 -0.88884,15.21057 l 0.12641,1.05958 1.95201,0.38098 c 8.01188,1.56369 15.203,-0.12174 17.89208,-4.19349 l 0.48207,-0.72995 -0.0112,-1.4089 -0.0112,-1.4089 -0.58255,-1.31028 c -1.07066,-2.40817 -0.88552,-3.34319 0.93403,-4.71696 3.72911,-2.81551 5.44731,-1.67284 5.64797,3.75609 0.3304,8.93903 -7.80625,20.78106 -15.53206,22.60524 -1.05297,0.24862 -7.09629,0.25019 -9.117,0.002 l -1.55108,-0.19023 -0.98212,0.95234 c -3.17347,3.07724 -5.24586,4.25351 -6.35549,3.6073 z M 31.954263,182.95198 c -8.60493,-1.51295 -13.850985,-8.80116 -13.104406,-18.2056 0.326547,-4.11341 1.72573,-7.26156 4.787878,-10.77267 l 1.155236,-1.32461 h -0.626538 c -3.174611,0 -5.516843,-6.04637 -5.490473,-14.17341 0.01549,-4.77431 0.131798,-5.21155 1.387214,-5.21504 1.677399,-0.005 2.271147,0.47546 2.271147,1.83652 0,0.98651 0.394828,1.87841 1.00996,2.28146 l 0.455747,0.29862 10.142447,0.0701 c 12.548235,0.0867 13.175995,0.19052 16.033911,2.6525 7.424036,6.3955 8.796745,19.49918 3.166704,30.22891 -4.902537,9.34325 -12.61763,13.83029 -21.188827,12.32326 z m 6.714847,-14.6634 c 7.888133,-1.13847 13.241823,-5.05203 13.268842,-9.69956 l 0.0086,-1.48498 -0.515194,-0.93004 c -0.818899,-1.4783 -2.180281,-2.37579 -4.609025,-3.03849 l -1.339815,-0.36557 -7.280918,-0.0777 -7.280917,-0.0777 -0.842801,0.57189 c -6.904519,4.68513 -7.079021,13.17602 -0.306217,14.89982 2.013496,0.51248 6.104195,0.60553 8.897411,0.20239 z m 70.02744,14.74217 c -3.538,-0.4385 -5.12505,-4.58675 -5.12505,-13.39593 v -1.83152 l 0.82985,0.10166 c 9.59864,1.17585 15.97484,-3.12176 14.90091,-10.04335 -0.44509,-2.86872 -1.55494,-3.70832 -6.08641,-4.60441 -1.22069,-0.24138 -2.38731,-0.47619 -2.59249,-0.52179 -1.71998,-0.38226 -3.91599,-13.38423 -2.59984,-15.39294 l 0.30336,-0.46297 1.50947,0.0919 c 5.07265,0.30886 10.18564,4.15651 12.09181,9.09937 1.61911,4.19851 2.3892,12.84464 1.58955,17.8467 -2.01984,12.63472 -7.7255,19.9927 -14.82116,19.11327 z m 24.9742,0.003 c -3.58079,-0.45701 -5.10721,-4.38295 -5.11483,-13.15538 l -0.002,-2.07527 0.82984,0.10166 c 9.57232,1.17262 15.67159,-2.89281 14.88347,-9.92048 -0.32979,-2.94071 -1.51559,-3.83066 -6.39492,-4.79943 -2.95638,-0.58698 -2.79727,-0.45605 -3.62382,-2.9818 -1.48308,-4.53196 -2.17055,-11.44446 -1.27424,-12.81241 l 0.30472,-0.46507 h 1.09485 c 2.93792,0 6.75415,1.7737 9.39717,4.36759 l 1.5131,1.48499 0.97529,2.00909 c 3.74024,7.70488 3.30138,21.40133 -0.95915,29.93442 -2.99328,5.99499 -7.05253,8.89627 -11.62968,8.31209 z M 80.045959,166.80704 c -1.707434,-0.40542 -3.277631,-2.31351 -2.956557,-3.59278 0.807849,-3.21872 6.238071,-3.36682 7.429008,-0.2026 0.729089,1.93713 -2.11914,4.35417 -4.472451,3.79538 z m 55.058051,-4.00154 c -1.40016,-0.63608 -2.52612,-2.38852 -2.18967,-3.40798 1.01806,-3.08474 5.7345,-3.35978 7.27248,-0.42409 1.20053,2.29158 -2.43702,5.03402 -5.08281,3.83207 z m 48.2197,-31.36347 c -1.97019,-0.86068 -2.7848,-2.93805 -1.70336,-4.3438 1.87132,-2.43251 5.46724,-2.2044 6.82445,0.43292 1.24962,2.42823 -2.30356,5.14173 -5.12109,3.91088 z"
       id="path1" /></g></svg>
