<?xml version="1.0" encoding="UTF-8" standalone="no"?>
<svg
   width="48"
   height="48.001"
   viewBox="0 0 48 48.001"
   version="1.1"
   id="svg1389"
   sodipodi:docname="print.svg"
   inkscape:version="1.2.2 (732a01da63, 2022-12-09)"
   xmlns:inkscape="http://www.inkscape.org/namespaces/inkscape"
   xmlns:sodipodi="http://sodipodi.sourceforge.net/DTD/sodipodi-0.dtd"
   xmlns="http://www.w3.org/2000/svg"
   xmlns:svg="http://www.w3.org/2000/svg">
  <defs
     id="defs1393" />
  <sodipodi:namedview
     id="namedview1391"
     pagecolor="#ffffff"
     bordercolor="#666666"
     borderopacity="1.0"
     inkscape:showpageshadow="2"
     inkscape:pageopacity="0.0"
     inkscape:pagecheckerboard="0"
     inkscape:deskcolor="#d1d1d1"
     showgrid="false"
     inkscape:zoom="8.4789901"
     inkscape:cx="24.177408"
     inkscape:cy="13.150151"
     inkscape:window-width="1920"
     inkscape:window-height="1001"
     inkscape:window-x="-9"
     inkscape:window-y="-9"
     inkscape:window-maximized="1"
     inkscape:current-layer="g1387" />
  <g
     id="g1387">
    <path
       d="M44.364,15.515h-7.03V.727A.728.728,0,0,0,36.606,0H11.394a.728.728,0,0,0-.728.727V15.515H3.636A3.641,3.641,0,0,0,0,19.152V36.606a3.641,3.641,0,0,0,3.636,3.637H9.248L5.9,46.948A.728.728,0,0,0,6.545,48H41.454a.728.728,0,0,0,.651-1.053l-3.353-6.7h5.612A3.641,3.641,0,0,0,48,36.606V19.152A3.641,3.641,0,0,0,44.364,15.515ZM12.121,1.455H35.879V15.516H12.121ZM40.277,46.546H7.722l4.121-8.241H36.156Zm-28.156-9.7V32.729A2.186,2.186,0,0,1,14.3,30.546H33.7a2.185,2.185,0,0,1,2.182,2.183V36.85Zm34.424-.244a2.185,2.185,0,0,1-2.182,2.182H38.024l-.691-1.383V32.729A3.641,3.641,0,0,0,33.7,29.092H14.3a3.641,3.641,0,0,0-3.637,3.637v4.676l-.691,1.383H3.635a2.185,2.185,0,0,1-2.182-2.182V24.729H46.544V36.606Zm0-13.332H1.454V19.152a2.186,2.186,0,0,1,2.182-2.183H44.364a2.186,2.186,0,0,1,2.182,2.183v4.122Z"
       fill="#1a171b"
       id="path1379"
       style="stroke:#000000;stroke-opacity:1" />
    <path
       d="M43.394,19.394H41.03a.728.728,0,0,0,0,1.455h2.364a.728.728,0,0,0,0-1.455Z"
       fill="#1a171b"
       id="path1381" />
    <path
       d="M37.575,19.394H35.213a.728.728,0,1,0,0,1.455h2.362a.728.728,0,1,0,0-1.455Z"
       fill="#1a171b"
       id="path1383" />
    <path
       d="M31.756,19.394H29.393a.728.728,0,0,0,0,1.455h2.363a.728.728,0,0,0,0-1.455Z"
       fill="#1a171b"
       id="path1385" />
  </g>
</svg>
