<svg xmlns="http://www.w3.org/2000/svg" width="48" height="48.001" viewBox="0 0 48 48.001">
  <g>
    <path d="M44.364,15.515h-7.03V.727A.728.728,0,0,0,36.606,0H11.394a.728.728,0,0,0-.728.727V15.515H3.636A3.641,3.641,0,0,0,0,19.152V36.606a3.641,3.641,0,0,0,3.636,3.637H9.248L5.9,46.948A.728.728,0,0,0,6.545,48H41.454a.728.728,0,0,0,.651-1.053l-3.353-6.7h5.612A3.641,3.641,0,0,0,48,36.606V19.152A3.641,3.641,0,0,0,44.364,15.515ZM12.121,1.455H35.879V15.516H12.121ZM40.277,46.546H7.722l4.121-8.241H36.156Zm-28.156-9.7V32.729A2.186,2.186,0,0,1,14.3,30.546H33.7a2.185,2.185,0,0,1,2.182,2.183V36.85Zm34.424-.244a2.185,2.185,0,0,1-2.182,2.182H38.024l-.691-1.383V32.729A3.641,3.641,0,0,0,33.7,29.092H14.3a3.641,3.641,0,0,0-3.637,3.637v4.676l-.691,1.383H3.635a2.185,2.185,0,0,1-2.182-2.182V24.729H46.544V36.606Zm0-13.332H1.454V19.152a2.186,2.186,0,0,1,2.182-2.183H44.364a2.186,2.186,0,0,1,2.182,2.183v4.122Z" fill="#1a171b"/>
    <path d="M43.394,19.394H41.03a.728.728,0,0,0,0,1.455h2.364a.728.728,0,0,0,0-1.455Z" fill="#1a171b"/>
    <path d="M37.575,19.394H35.213a.728.728,0,1,0,0,1.455h2.362a.728.728,0,1,0,0-1.455Z" fill="#1a171b"/>
    <path d="M31.756,19.394H29.393a.728.728,0,0,0,0,1.455h2.363a.728.728,0,0,0,0-1.455Z" fill="#1a171b"/>
  </g>
</svg>
